<?xml version="1.0" encoding="utf-8"?>
<?xml-stylesheet type="text/xsl" href="rss1.xsl"?>
<rss version="2.0" xmlns:atom="http://www.w3.org/2005/Atom" xmlns:content="http://purl.org/rss/1.0/modules/content/" xmlns:dc="http://purl.org/dc/elements/1.1/" xmlns:media="http://search.yahoo.com/mrss/">
<channel>
 <title>Getty</title>
 <link>http://www.gettyimg.com/</link>
 <atom:link href="http://www.gettyimg.com/" rel="self" type="application/rss+xml" />

 
                <item>
                <title><![CDATA[【HD Live Performances】FEED - UEFA Champions League Final 2024.01.06 Kickoff Show (Lenny Kravitz) 2160p Sat FEED HLG-TSS]]></title>
                <link><![CDATA[https://sharemania.us/threads/uefa-champions-league-final-2024-01-06-kickoff-show-lenny-kravitz-2160p-sat-feed-hlg-tss.246053/]]></link>
                <description><![CDATA[<article>
<blockquote class="messageText SelectQuoteContainer ugc baseHtml">
<div style="text-align: center"><img src="https://i.imgur.com/ikG7XY1.png" class="bbCodeImage LbImage" alt="[​IMG]" data-url="https://i.imgur.com/ikG7XY1.png" style=""><br>
<br>
Note: This year UEFA decided to use 1080p cameras instead of native 4K for the broadcast of the Champions League Final.<br>
​</div><div style="text-align: left">​</div><div style="text-align: center">​</div>
<div class="ToggleTriggerAnchor bbCodeSpoilerContainer">
<button type="button" class="button bbCodeSpoilerButton ToggleTrigger Tooltip JsOnly" data-target="> .SpoilerTarget"><span>Spoiler: <span class="SpoilerTitle">Media Info</span></span></button>
<div class="SpoilerTarget bbCodeSpoilerText"><div style="text-align: left">General<br>
Unique ID : 167190456499856939369810540568371793691 (0x7DC7B5EDBD9BFD8D6BECAB7EA9DC0F1B)<br>
Complete name : Z:\Satellite Recordings\Fodbold\UHD\2023-2024 Knockout Stages\UCL Final\UEFA Champions League Final 2024.01.06 Kickoff Show (Lenny Kravitz) 2160p Sat FEED HLG.mkv<br>
Format : Matroska<br>
Format version : Version 4<br>
File size : 2.63 GiB<br>
Duration : 7 min 7 s<br>
Overall bit rate mode : Variable<br>
Overall bit rate : 52.8 Mb/s<br>
Encoded date : UTC 2024-06-02 09:50:21<br>
Writing application : mkvmerge v78.0 ('Running') 64-bit<br>
Writing library : libebml v1.4.4 + libmatroska v1.7.1<br>
<br>
Video<br>
ID : 1<br>
Format : HEVC<br>
Format/Info : High Efficiency Video Coding<br>
Format profile : Format Range@L5.1@Main<br>
Codec ID : V_MPEGH/ISO/HEVC<br>
Duration : 7 min 7 s<br>
Bit rate : 48.4 Mb/s<br>
Width : 3 840 pixels<br>
Height : 2 160 pixels<br>
Display aspect ratio : 16:9<br>
Frame rate mode : Constant<br>
Frame rate : 50.000 FPS<br>
Standard : Component<br>
Color space : YUV<br>
Chroma subsampling : 4:2:2 (Type 2)<br>
Bit depth : 10 bits<br>
Bits/(Pixel*Frame) : 0.117<br>
Stream size : 2.41 GiB (92%)<br>
Default : Yes<br>
Forced : No<br>
Color range : Limited<br>
Color primaries : BT.2020<br>
Transfer characteristics : HLG<br>
Matrix coefficients : BT.2020 non-constant<br>
<br>
Audio #1<br>
ID : 2<br>
Format : MPEG Audio<br>
Format version : Version 1<br>
Format profile : Layer 2<br>
Format settings : Dual mono<br>
Codec ID : A_MPEG/L2<br>
Codec ID/Hint : MP2<br>
Duration : 7 min 7 s<br>
Bit rate mode : Constant<br>
Bit rate : 384 kb/s<br>
Channel(s) : 2 channels<br>
Sampling rate : 48.0 kHz<br>
Frame rate : 41.667 FPS (1152 SPF)<br>
Compression mode : Lossy<br>
Delay relative to video : 10 ms<br>
Stream size : 19.6 MiB (1%)<br>
Default : Yes<br>
Forced : No<br>
<br>
Audio #2<br>
ID : 3<br>
Format : FLAC<br>
Format/Info : Free Lossless Audio Codec<br>
Codec ID : A_FLAC<br>
Duration : 7 min 7 s<br>
Bit rate mode : Variable<br>
Bit rate : 3 981 kb/s<br>
Channel(s) : 6 channels<br>
Channel layout : L R C LFE Ls Rs<br>
Sampling rate : 48.0 kHz<br>
Frame rate : 11.720 FPS (4096 SPF)<br>
Bit depth : 24 bits<br>
Compression mode : Lossless<br>
Stream size : 203 MiB (8%)<br>
Writing library : libFLAC 1.3.2 (UTC 2019-08-04)<br>
Default : Yes<br>
Forced : No<br>
​</div></div>
</div><div style="text-align: left"><br>
Download<br>
<div class="bbCodeBlock bbCodeVfcHH HiddenContent">
<div class="attribution type">Hidden Content:</div>
<blockquote>You must reply before you can see the hidden data contained here.</blockquote>
</div></div>
<div class="messageTextEndMarker">&nbsp;</div>
</blockquote>
</article>]]></description>
                <author><![CDATA[theslothsidd]]></author>
                </item>

                </channel></rss>